<svg width="24" height="29" viewBox="0 0 24 29" fill="none" xmlns="http://www.w3.org/2000/svg">
<path d="M17.4868 0C17.6626 1.70599 17.0179 3.38152 16.0703 4.61024C15.0836 5.81865 13.5011 6.75288 11.9576 6.63102C11.7622 4.99612 12.5437 3.25966 13.4132 2.19342C14.3998 0.985006 16.1191 0.0609282 17.4868 0Z" fill="white"/>
<path d="M22.5188 9.81486C22.3071 9.94858 19.509 11.7167 19.5378 15.2931C19.5765 19.6006 23.1368 21.0554 23.2478 21.1007L23.25 21.1016C23.2305 21.2032 22.6834 23.1833 21.3255 25.1838C20.1826 26.9507 19.0005 28.677 17.1054 28.7075C16.2078 28.7274 15.6019 28.4586 14.9706 28.1785C14.3102 27.8856 13.6221 27.5803 12.5433 27.5803C11.4083 27.5803 10.6906 27.8947 9.99876 28.1978C9.39846 28.4607 8.81769 28.7151 8.00076 28.7481C6.19351 28.8192 4.82587 26.8593 3.64383 25.1127C1.28953 21.5383 -0.537258 15.0393 1.91474 10.622C3.09677 8.44885 5.27523 7.05765 7.59046 7.01703C8.60702 6.9998 9.58607 7.40805 10.4446 7.76603C11.1041 8.04103 11.6925 8.28637 12.1721 8.28637C12.593 8.28637 13.1625 8.05076 13.8265 7.77609C14.873 7.34315 16.1541 6.8132 17.457 6.9561C18.346 6.98657 20.8859 7.33183 22.5271 9.80958C22.5271 9.80958 22.5223 9.81265 22.5188 9.81486Z" fill="white"/>
</svg>
